<?xml version="1.0" encoding="UTF-8"?> <svg xmlns="http://www.w3.org/2000/svg" width="655" height="281" viewBox="0 0 655 281" fill="none"><path opacity="0.8" d="M0 251H635" stroke="#718096" stroke-opacity="0.3" stroke-width="2"></path><path opacity="0.3" d="M0 201H635" stroke="#CBD5E0"></path><path opacity="0.3" d="M0 151H635" stroke="#CBD5E0"></path><path opacity="0.3" d="M0 101H635" stroke="#CBD5E0"></path><path opacity="0.3" d="M0 51H635" stroke="#CBD5E0"></path><path opacity="0.3" d="M0 1H635" stroke="#CBD5E0"></path><path d="M5.078 272.675C6.038 271.845 6.793 271.165 7.343 270.635C7.903 270.095 8.368 269.535 8.738 268.955C9.108 268.375 9.293 267.795 9.293 267.215C9.293 266.615 9.148 266.145 8.858 265.805C8.578 265.465 8.133 265.295 7.523 265.295C6.933 265.295 6.473 265.485 6.143 265.865C5.823 266.235 5.653 266.735 5.633 267.365H3.983C4.013 266.225 4.353 265.355 5.003 264.755C5.663 264.145 6.498 263.84 7.508 263.84C8.598 263.84 9.448 264.14 10.058 264.74C10.678 265.34 10.988 266.14 10.988 267.14C10.988 267.86 10.803 268.555 10.433 269.225C10.073 269.885 9.638 270.48 9.128 271.01C8.628 271.53 7.988 272.135 7.208 272.825L6.533 273.425H11.288V274.85H3.998V273.605L5.078 272.675ZM12.9852 266.765C13.0452 265.835 13.4002 265.11 14.0502 264.59C14.7102 264.07 15.5502 263.81 16.5702 263.81C17.2702 263.81 17.8752 263.935 18.3852 264.185C18.8952 264.435 19.2802 264.775 19.5402 265.205C19.8002 265.635 19.9302 266.12 19.9302 266.66C19.9302 267.28 19.7652 267.81 19.4352 268.25C19.1052 268.69 18.7102 268.985 18.2502 269.135V269.195C18.8402 269.375 19.3002 269.705 19.6302 270.185C19.9602 270.655 20.1252 271.26 20.1252 272C20.1252 272.59 19.9902 273.115 19.7202 273.575C19.4502 274.035 19.0502 274.4 18.5202 274.67C17.9902 274.93 17.3552 275.06 16.6152 275.06C15.5352 275.06 14.6452 274.785 13.9452 274.235C13.2552 273.675 12.8852 272.875 12.8352 271.835H14.4852C14.5252 272.365 14.7302 272.8 15.1002 273.14C15.4702 273.47 15.9702 273.635 16.6002 273.635C17.2102 273.635 17.6802 273.47 18.0102 273.14C18.3402 272.8 18.5052 272.365 18.5052 271.835C18.5052 271.135 18.2802 270.64 17.8302 270.35C17.3902 270.05 16.7102 269.9 15.7902 269.9H15.4002V268.49H15.8052C16.6152 268.48 17.2302 268.345 17.6502 268.085C18.0802 267.825 18.2952 267.415 18.2952 266.855C18.2952 266.375 18.1402 265.995 17.8302 265.715C17.5202 265.425 17.0802 265.28 16.5102 265.28C15.9502 265.28 15.5152 265.425 15.2052 265.715C14.8952 265.995 14.7102 266.345 14.6502 266.765H12.9852ZM29.928 275.105C29.228 275.105 28.598 274.985 28.038 274.745C27.478 274.495 27.038 274.145 26.718 273.695C26.398 273.245 26.238 272.72 26.238 272.12H28.068C28.108 272.57 28.283 272.94 28.593 273.23C28.913 273.52 29.358 273.665 29.928 273.665C30.518 273.665 30.978 273.525 31.308 273.245C31.638 272.955 31.803 272.585 31.803 272.135C31.803 271.785 31.698 271.5 31.488 271.28C31.288 271.06 31.033 270.89 30.723 270.77C30.423 270.65 30.003 270.52 29.463 270.38C28.783 270.2 28.228 270.02 27.798 269.84C27.378 269.65 27.018 269.36 26.718 268.97C26.418 268.58 26.268 268.06 26.268 267.41C26.268 266.81 26.418 266.285 26.718 265.835C27.018 265.385 27.438 265.04 27.978 264.8C28.518 264.56 29.143 264.44 29.853 264.44C30.863 264.44 31.688 264.695 32.328 265.205C32.978 265.705 33.338 266.395 33.408 267.275H31.518C31.488 266.895 31.308 266.57 30.978 266.3C30.648 266.03 30.213 265.895 29.673 265.895C29.183 265.895 28.783 266.02 28.473 266.27C28.163 266.52 28.008 266.88 28.008 267.35C28.008 267.67 28.103 267.935 28.293 268.145C28.493 268.345 28.743 268.505 29.043 268.625C29.343 268.745 29.753 268.875 30.273 269.015C30.963 269.205 31.523 269.395 31.953 269.585C32.393 269.775 32.763 270.07 33.063 270.47C33.373 270.86 33.528 271.385 33.528 272.045C33.528 272.575 33.383 273.075 33.093 273.545C32.813 274.015 32.398 274.395 31.848 274.685C31.308 274.965 30.668 275.105 29.928 275.105ZM43.3457 270.665C43.3457 270.975 43.3257 271.255 43.2857 271.505H36.9707C37.0207 272.165 37.2657 272.695 37.7057 273.095C38.1457 273.495 38.6857 273.695 39.3257 273.695C40.2457 273.695 40.8957 273.31 41.2757 272.54H43.1207C42.8707 273.3 42.4157 273.925 41.7557 274.415C41.1057 274.895 40.2957 275.135 39.3257 275.135C38.5357 275.135 37.8257 274.96 37.1957 274.61C36.5757 274.25 36.0857 273.75 35.7257 273.11C35.3757 272.46 35.2007 271.71 35.2007 270.86C35.2007 270.01 35.3707 269.265 35.7107 268.625C36.0607 267.975 36.5457 267.475 37.1657 267.125C37.7957 266.775 38.5157 266.6 39.3257 266.6C40.1057 266.6 40.8007 266.77 41.4107 267.11C42.0207 267.45 42.4957 267.93 42.8357 268.55C43.1757 269.16 43.3457 269.865 43.3457 270.665ZM41.5607 270.125C41.5507 269.495 41.3257 268.99 40.8857 268.61C40.4457 268.23 39.9007 268.04 39.2507 268.04C38.6607 268.04 38.1557 268.23 37.7357 268.61C37.3157 268.98 37.0657 269.485 36.9857 270.125H41.5607ZM46.9635 267.95C47.2535 267.57 47.6485 267.25 48.1485 266.99C48.6485 266.73 49.2135 266.6 49.8435 266.6C50.5635 266.6 51.2185 266.78 51.8085 267.14C52.4085 267.49 52.8785 267.985 53.2185 268.625C53.5585 269.265 53.7285 270 53.7285 270.83C53.7285 271.66 53.5585 272.405 53.2185 273.065C52.8785 273.715 52.4085 274.225 51.8085 274.595C51.2185 274.955 50.5635 275.135 49.8435 275.135C49.2135 275.135 48.6535 275.01 48.1635 274.76C47.6735 274.5 47.2735 274.18 46.9635 273.8V278.93H45.2535V266.735H46.9635V267.95ZM51.9885 270.83C51.9885 270.26 51.8685 269.77 51.6285 269.36C51.3985 268.94 51.0885 268.625 50.6985 268.415C50.3185 268.195 49.9085 268.085 49.4685 268.085C49.0385 268.085 48.6285 268.195 48.2385 268.415C47.8585 268.635 47.5485 268.955 47.3085 269.375C47.0785 269.795 46.9635 270.29 46.9635 270.86C46.9635 271.43 47.0785 271.93 47.3085 272.36C47.5485 272.78 47.8585 273.1 48.2385 273.32C48.6285 273.54 49.0385 273.65 49.4685 273.65C49.9085 273.65 50.3185 273.54 50.6985 273.32C51.0885 273.09 51.3985 272.76 51.6285 272.33C51.8685 271.9 51.9885 271.4 51.9885 270.83ZM132.415 265.385L128.245 275H126.52L130.735 265.565H125.185V264.11H132.415V265.385ZM143.205 275.105C142.235 275.105 141.34 274.88 140.52 274.43C139.71 273.97 139.065 273.335 138.585 272.525C138.115 271.705 137.88 270.785 137.88 269.765C137.88 268.745 138.115 267.83 138.585 267.02C139.065 266.21 139.71 265.58 140.52 265.13C141.34 264.67 142.235 264.44 143.205 264.44C144.185 264.44 145.08 264.67 145.89 265.13C146.71 265.58 147.355 266.21 147.825 267.02C148.295 267.83 148.53 268.745 148.53 269.765C148.53 270.785 148.295 271.705 147.825 272.525C147.355 273.335 146.71 273.97 145.89 274.43C145.08 274.88 144.185 275.105 143.205 275.105ZM143.205 273.62C143.895 273.62 144.51 273.465 145.05 273.155C145.59 272.835 146.01 272.385 146.31 271.805C146.62 271.215 146.775 270.535 146.775 269.765C146.775 268.995 146.62 268.32 146.31 267.74C146.01 267.16 145.59 266.715 145.05 266.405C144.51 266.095 143.895 265.94 143.205 265.94C142.515 265.94 141.9 266.095 141.36 266.405C140.82 266.715 140.395 267.16 140.085 267.74C139.785 268.32 139.635 268.995 139.635 269.765C139.635 270.535 139.785 271.215 140.085 271.805C140.395 272.385 140.82 272.835 141.36 273.155C141.9 273.465 142.515 273.62 143.205 273.62ZM149.868 270.86C149.868 270.01 150.038 269.265 150.378 268.625C150.728 267.975 151.208 267.475 151.818 267.125C152.428 266.775 153.128 266.6 153.918 266.6C154.918 266.6 155.743 266.84 156.393 267.32C157.053 267.79 157.498 268.465 157.728 269.345H155.883C155.733 268.935 155.493 268.615 155.163 268.385C154.833 268.155 154.418 268.04 153.918 268.04C153.218 268.04 152.658 268.29 152.238 268.79C151.828 269.28 151.623 269.97 151.623 270.86C151.623 271.75 151.828 272.445 152.238 272.945C152.658 273.445 153.218 273.695 153.918 273.695C154.908 273.695 155.563 273.26 155.883 272.39H157.728C157.488 273.23 157.038 273.9 156.378 274.4C155.718 274.89 154.898 275.135 153.918 275.135C153.128 275.135 152.428 274.96 151.818 274.61C151.208 274.25 150.728 273.75 150.378 273.11C150.038 272.46 149.868 271.71 149.868 270.86ZM161.652 268.13V272.705C161.652 273.015 161.722 273.24 161.862 273.38C162.012 273.51 162.262 273.575 162.612 273.575H163.662V275H162.312C161.542 275 160.952 274.82 160.542 274.46C160.132 274.1 159.927 273.515 159.927 272.705V268.13H158.952V266.735H159.927V264.68H161.652V266.735H163.662V268.13H161.652ZM235.093 272.72V271.43L240.133 264.2H242.203V271.235H243.598V272.72H242.203V275H240.523V272.72H235.093ZM240.598 265.94L237.058 271.235H240.598V265.94ZM258.151 275H256.441L251.296 267.215V275H249.586V264.56H251.296L256.441 272.33V264.56H258.151V275ZM264.207 275.135C263.427 275.135 262.722 274.96 262.092 274.61C261.462 274.25 260.967 273.75 260.607 273.11C260.247 272.46 260.067 271.71 260.067 270.86C260.067 270.02 260.252 269.275 260.622 268.625C260.992 267.975 261.497 267.475 262.137 267.125C262.777 266.775 263.492 266.6 264.282 266.6C265.072 266.6 265.787 266.775 266.427 267.125C267.067 267.475 267.572 267.975 267.942 268.625C268.312 269.275 268.497 270.02 268.497 270.86C268.497 271.7 268.307 272.445 267.927 273.095C267.547 273.745 267.027 274.25 266.367 274.61C265.717 274.96 264.997 275.135 264.207 275.135ZM264.207 273.65C264.647 273.65 265.057 273.545 265.437 273.335C265.827 273.125 266.142 272.81 266.382 272.39C266.622 271.97 266.742 271.46 266.742 270.86C266.742 270.26 266.627 269.755 266.397 269.345C266.167 268.925 265.862 268.61 265.482 268.4C265.102 268.19 264.692 268.085 264.252 268.085C263.812 268.085 263.402 268.19 263.022 268.4C262.652 268.61 262.357 268.925 262.137 269.345C261.917 269.755 261.807 270.26 261.807 270.86C261.807 271.75 262.032 272.44 262.482 272.93C262.942 273.41 263.517 273.65 264.207 273.65ZM273.607 273.47L275.947 266.735H277.762L274.612 275H272.572L269.437 266.735H271.267L273.607 273.47ZM348.895 265.625V264.065H352.015V275H350.29V265.625H348.895ZM356.434 269.285C355.394 268.765 354.874 267.945 354.874 266.825C354.874 266.285 355.009 265.79 355.279 265.34C355.549 264.89 355.954 264.535 356.494 264.275C357.034 264.005 357.694 263.87 358.474 263.87C359.244 263.87 359.899 264.005 360.439 264.275C360.989 264.535 361.399 264.89 361.669 265.34C361.939 265.79 362.074 266.285 362.074 266.825C362.074 267.385 361.929 267.88 361.639 268.31C361.359 268.73 360.984 269.055 360.514 269.285C361.084 269.495 361.534 269.84 361.864 270.32C362.194 270.79 362.359 271.345 362.359 271.985C362.359 272.635 362.194 273.21 361.864 273.71C361.534 274.21 361.074 274.595 360.484 274.865C359.894 275.135 359.224 275.27 358.474 275.27C357.724 275.27 357.054 275.135 356.464 274.865C355.884 274.595 355.429 274.21 355.099 273.71C354.769 273.21 354.604 272.635 354.604 271.985C354.604 271.335 354.769 270.775 355.099 270.305C355.429 269.835 355.874 269.495 356.434 269.285ZM360.439 267.035C360.439 266.475 360.264 266.045 359.914 265.745C359.564 265.445 359.084 265.295 358.474 265.295C357.874 265.295 357.399 265.445 357.049 265.745C356.699 266.045 356.524 266.48 356.524 267.05C356.524 267.55 356.704 267.96 357.064 268.28C357.434 268.59 357.904 268.745 358.474 268.745C359.044 268.745 359.514 268.585 359.884 268.265C360.254 267.945 360.439 267.535 360.439 267.035ZM358.474 270.035C357.814 270.035 357.274 270.2 356.854 270.53C356.444 270.85 356.239 271.315 356.239 271.925C356.239 272.495 356.439 272.96 356.839 273.32C357.239 273.67 357.784 273.845 358.474 273.845C359.154 273.845 359.689 273.665 360.079 273.305C360.479 272.945 360.679 272.485 360.679 271.925C360.679 271.325 360.474 270.86 360.064 270.53C359.664 270.2 359.134 270.035 358.474 270.035ZM377.291 275H375.581L370.436 267.215V275H368.726V264.56H370.436L375.581 272.33V264.56H377.291V275ZM383.347 275.135C382.567 275.135 381.862 274.96 381.232 274.61C380.602 274.25 380.107 273.75 379.747 273.11C379.387 272.46 379.207 271.71 379.207 270.86C379.207 270.02 379.392 269.275 379.762 268.625C380.132 267.975 380.637 267.475 381.277 267.125C381.917 266.775 382.632 266.6 383.422 266.6C384.212 266.6 384.927 266.775 385.567 267.125C386.207 267.475 386.712 267.975 387.082 268.625C387.452 269.275 387.637 270.02 387.637 270.86C387.637 271.7 387.447 272.445 387.067 273.095C386.687 273.745 386.167 274.25 385.507 274.61C384.857 274.96 384.137 275.135 383.347 275.135ZM383.347 273.65C383.787 273.65 384.197 273.545 384.577 273.335C384.967 273.125 385.282 272.81 385.522 272.39C385.762 271.97 385.882 271.46 385.882 270.86C385.882 270.26 385.767 269.755 385.537 269.345C385.307 268.925 385.002 268.61 384.622 268.4C384.242 268.19 383.832 268.085 383.392 268.085C382.952 268.085 382.542 268.19 382.162 268.4C381.792 268.61 381.497 268.925 381.277 269.345C381.057 269.755 380.947 270.26 380.947 270.86C380.947 271.75 381.172 272.44 381.622 272.93C382.082 273.41 382.657 273.65 383.347 273.65ZM392.747 273.47L395.087 266.735H396.902L393.752 275H391.712L388.577 266.735H390.407L392.747 273.47ZM469.205 272.675C470.165 271.845 470.92 271.165 471.47 270.635C472.03 270.095 472.495 269.535 472.865 268.955C473.235 268.375 473.42 267.795 473.42 267.215C473.42 266.615 473.275 266.145 472.985 265.805C472.705 265.465 472.26 265.295 471.65 265.295C471.06 265.295 470.6 265.485 470.27 265.865C469.95 266.235 469.78 266.735 469.76 267.365H468.11C468.14 266.225 468.48 265.355 469.13 264.755C469.79 264.145 470.625 263.84 471.635 263.84C472.725 263.84 473.575 264.14 474.185 264.74C474.805 265.34 475.115 266.14 475.115 267.14C475.115 267.86 474.93 268.555 474.56 269.225C474.2 269.885 473.765 270.48 473.255 271.01C472.755 271.53 472.115 272.135 471.335 272.825L470.66 273.425H475.415V274.85H468.125V273.605L469.205 272.675ZM484.894 264.575C486.004 264.575 486.974 264.79 487.804 265.22C488.644 265.64 489.289 266.25 489.739 267.05C490.199 267.84 490.429 268.765 490.429 269.825C490.429 270.885 490.199 271.805 489.739 272.585C489.289 273.365 488.644 273.965 487.804 274.385C486.974 274.795 486.004 275 484.894 275H481.489V264.575H484.894ZM484.894 273.605C486.114 273.605 487.049 273.275 487.699 272.615C488.349 271.955 488.674 271.025 488.674 269.825C488.674 268.615 488.349 267.67 487.699 266.99C487.049 266.31 486.114 265.97 484.894 265.97H483.199V273.605H484.894ZM499.923 270.665C499.923 270.975 499.903 271.255 499.863 271.505H493.548C493.598 272.165 493.843 272.695 494.283 273.095C494.723 273.495 495.263 273.695 495.903 273.695C496.823 273.695 497.473 273.31 497.853 272.54H499.698C499.448 273.3 498.993 273.925 498.333 274.415C497.683 274.895 496.873 275.135 495.903 275.135C495.113 275.135 494.403 274.96 493.773 274.61C493.153 274.25 492.663 273.75 492.303 273.11C491.953 272.46 491.778 271.71 491.778 270.86C491.778 270.01 491.948 269.265 492.288 268.625C492.638 267.975 493.123 267.475 493.743 267.125C494.373 266.775 495.093 266.6 495.903 266.6C496.683 266.6 497.378 266.77 497.988 267.11C498.598 267.45 499.073 267.93 499.413 268.55C499.753 269.16 499.923 269.865 499.923 270.665ZM498.138 270.125C498.128 269.495 497.903 268.99 497.463 268.61C497.023 268.23 496.478 268.04 495.828 268.04C495.238 268.04 494.733 268.23 494.313 268.61C493.893 268.98 493.643 269.485 493.563 270.125H498.138ZM501.261 270.86C501.261 270.01 501.431 269.265 501.771 268.625C502.121 267.975 502.601 267.475 503.211 267.125C503.821 266.775 504.521 266.6 505.311 266.6C506.311 266.6 507.136 266.84 507.786 267.32C508.446 267.79 508.891 268.465 509.121 269.345H507.276C507.126 268.935 506.886 268.615 506.556 268.385C506.226 268.155 505.811 268.04 505.311 268.04C504.611 268.04 504.051 268.29 503.631 268.79C503.221 269.28 503.016 269.97 503.016 270.86C503.016 271.75 503.221 272.445 503.631 272.945C504.051 273.445 504.611 273.695 505.311 273.695C506.301 273.695 506.956 273.26 507.276 272.39H509.121C508.881 273.23 508.431 273.9 507.771 274.4C507.111 274.89 506.291 275.135 505.311 275.135C504.521 275.135 503.821 274.96 503.211 274.61C502.601 274.25 502.121 273.75 501.771 273.11C501.431 272.46 501.261 271.71 501.261 270.86ZM580.666 265.625V264.065H583.786V275H582.061V265.625H580.666ZM592.24 266.6C592.13 266.14 591.93 265.795 591.64 265.565C591.35 265.335 590.945 265.22 590.425 265.22C589.635 265.22 589.045 265.525 588.655 266.135C588.265 266.735 588.06 267.735 588.04 269.135C588.3 268.695 588.68 268.355 589.18 268.115C589.68 267.875 590.22 267.755 590.8 267.755C591.46 267.755 592.04 267.9 592.54 268.19C593.05 268.47 593.445 268.88 593.725 269.42C594.015 269.96 594.16 270.605 594.16 271.355C594.16 272.055 594.02 272.68 593.74 273.23C593.47 273.78 593.065 274.215 592.525 274.535C591.985 274.845 591.335 275 590.575 275C589.545 275 588.735 274.775 588.145 274.325C587.565 273.865 587.155 273.22 586.915 272.39C586.685 271.56 586.57 270.525 586.57 269.285C586.57 265.625 587.86 263.795 590.44 263.795C591.44 263.795 592.225 264.065 592.795 264.605C593.375 265.145 593.715 265.81 593.815 266.6H592.24ZM590.425 269.195C589.815 269.195 589.295 269.38 588.865 269.75C588.445 270.11 588.235 270.635 588.235 271.325C588.235 272.015 588.43 272.565 588.82 272.975C589.22 273.375 589.775 273.575 590.485 273.575C591.115 273.575 591.61 273.38 591.97 272.99C592.34 272.6 592.525 272.08 592.525 271.43C592.525 270.75 592.345 270.21 591.985 269.81C591.635 269.4 591.115 269.195 590.425 269.195ZM603.96 264.575C605.07 264.575 606.04 264.79 606.87 265.22C607.71 265.64 608.355 266.25 608.805 267.05C609.265 267.84 609.495 268.765 609.495 269.825C609.495 270.885 609.265 271.805 608.805 272.585C608.355 273.365 607.71 273.965 606.87 274.385C606.04 274.795 605.07 275 603.96 275H600.555V264.575H603.96ZM603.96 273.605C605.18 273.605 606.115 273.275 606.765 272.615C607.415 271.955 607.74 271.025 607.74 269.825C607.74 268.615 607.415 267.67 606.765 266.99C606.115 266.31 605.18 265.97 603.96 265.97H602.265V273.605H603.96ZM618.99 270.665C618.99 270.975 618.97 271.255 618.93 271.505H612.615C612.665 272.165 612.91 272.695 613.35 273.095C613.79 273.495 614.33 273.695 614.97 273.695C615.89 273.695 616.54 273.31 616.92 272.54H618.765C618.515 273.3 618.06 273.925 617.4 274.415C616.75 274.895 615.94 275.135 614.97 275.135C614.18 275.135 613.47 274.96 612.84 274.61C612.22 274.25 611.73 273.75 611.37 273.11C611.02 272.46 610.845 271.71 610.845 270.86C610.845 270.01 611.015 269.265 611.355 268.625C611.705 267.975 612.19 267.475 612.81 267.125C613.44 266.775 614.16 266.6 614.97 266.6C615.75 266.6 616.445 266.77 617.055 267.11C617.665 267.45 618.14 267.93 618.48 268.55C618.82 269.16 618.99 269.865 618.99 270.665ZM617.205 270.125C617.195 269.495 616.97 268.99 616.53 268.61C616.09 268.23 615.545 268.04 614.895 268.04C614.305 268.04 613.8 268.23 613.38 268.61C612.96 268.98 612.71 269.485 612.63 270.125H617.205ZM620.328 270.86C620.328 270.01 620.498 269.265 620.838 268.625C621.188 267.975 621.668 267.475 622.278 267.125C622.888 266.775 623.588 266.6 624.378 266.6C625.378 266.6 626.203 266.84 626.853 267.32C627.513 267.79 627.958 268.465 628.188 269.345H626.343C626.193 268.935 625.953 268.615 625.623 268.385C625.293 268.155 624.878 268.04 624.378 268.04C623.678 268.04 623.118 268.29 622.698 268.79C622.288 269.28 622.083 269.97 622.083 270.86C622.083 271.75 622.288 272.445 622.698 272.945C623.118 273.445 623.678 273.695 624.378 273.695C625.368 273.695 626.023 273.26 626.343 272.39H628.188C627.948 273.23 627.498 273.9 626.838 274.4C626.178 274.89 625.358 275.135 624.378 275.135C623.588 275.135 622.888 274.96 622.278 274.61C621.668 274.25 621.188 273.75 620.838 273.11C620.498 272.46 620.328 271.71 620.328 270.86Z" fill="#718096"></path><path d="M197.506 98.8128L161.681 58.1514L104.184 66.1833L47.5719 20L0 44.0956V139.976L47.5719 98.8128L86.0506 131.895L141.667 98.8128L161.681 136.964L223 145L277.5 104.5V52L261 66.1833L197.506 98.8128Z" fill="url(#paint0_linear)"></path><path d="M2 89.5L41.5 45L97.5 89.5L151.5 71.5L174 122.5L224 118L294 175" stroke="url(#paint1_linear)" stroke-width="3" stroke-linecap="round"></path><circle cx="295" cy="174" r="14.5" fill="#FEB2B2" stroke="white" stroke-width="5"></circle><circle cx="295" cy="174" r="7" fill="#E53E3E"></circle><g clip-path="url(#clip0)"><path fill-rule="evenodd" clip-rule="evenodd" d="M457.299 154C455.143 154.002 453.398 155.748 453.4 157.899C453.398 160.051 455.145 161.797 457.3 161.798H461.201V157.901C461.203 155.749 459.456 154.003 457.299 154C457.3 154 457.3 154 457.299 154V154ZM457.299 164.4H446.9C444.745 164.402 442.998 166.148 443 168.299C442.997 170.451 444.743 172.197 446.899 172.2H457.299C459.455 172.198 461.201 170.452 461.2 168.301C461.201 166.148 459.455 164.402 457.299 164.4V164.4Z" fill="#36C5F0"></path><path fill-rule="evenodd" clip-rule="evenodd" d="M482 168.299C482.002 166.148 480.255 164.402 478.099 164.4C475.944 164.402 474.197 166.148 474.199 168.299V172.2H478.099C480.255 172.198 482.002 170.452 482 168.299ZM471.6 168.299V157.899C471.602 155.749 469.857 154.003 467.701 154C465.545 154.002 463.799 155.748 463.8 157.899V168.299C463.797 170.451 465.543 172.197 467.699 172.2C469.855 172.198 471.602 170.452 471.6 168.299Z" fill="#2EB67D"></path><path fill-rule="evenodd" clip-rule="evenodd" d="M467.699 193C469.855 192.998 471.602 191.252 471.6 189.101C471.602 186.949 469.855 185.203 467.699 185.202H463.799V189.101C463.797 191.251 465.543 192.997 467.699 193ZM467.699 182.598H478.099C480.255 182.597 482.002 180.851 482 178.699C482.003 176.548 480.257 174.802 478.101 174.798H467.701C465.545 174.8 463.799 176.546 463.8 178.698C463.799 180.851 465.543 182.597 467.699 182.598V182.598Z" fill="#ECB22E"></path><path fill-rule="evenodd" clip-rule="evenodd" d="M443 178.699C442.998 180.851 444.745 182.597 446.901 182.598C449.057 182.597 450.803 180.851 450.801 178.699V174.8H446.901C444.745 174.802 442.998 176.548 443 178.699ZM453.4 178.699V189.099C453.397 191.251 455.143 192.997 457.299 193C459.455 192.998 461.201 191.252 461.2 189.101V178.702C461.203 176.551 459.457 174.805 457.301 174.802C455.143 174.802 453.399 176.548 453.4 178.699C453.4 178.701 453.4 178.699 453.4 178.699Z" fill="#E01E5A"></path></g><g clip-path="url(#clip1)"><path d="M528.598 168.625H539.188C540.189 168.625 541 169.454 541 170.477V180.342C541 184.102 538.019 187.15 534.342 187.15H534.31C530.633 187.151 527.652 184.103 527.651 180.343C527.651 180.342 527.651 180.342 527.651 180.342V169.593C527.651 169.058 528.075 168.625 528.598 168.625Z" fill="#5059C9"></path><path d="M535.756 166.675C538.126 166.675 540.047 164.711 540.047 162.288C540.047 159.864 538.126 157.9 535.756 157.9C533.386 157.9 531.465 159.864 531.465 162.288C531.465 164.711 533.386 166.675 535.756 166.675Z" fill="#5059C9"></path><path d="M522.407 166.675C525.83 166.675 528.605 163.838 528.605 160.338C528.605 156.837 525.83 154 522.407 154C518.984 154 516.209 156.837 516.209 160.338C516.209 163.838 518.984 166.675 522.407 166.675Z" fill="#7B83EB"></path><path d="M530.671 168.625H513.189C512.201 168.65 511.419 169.489 511.442 170.5V181.75C511.304 187.817 515.997 192.852 521.93 193C527.863 192.852 532.557 187.817 532.418 181.75V170.5C532.441 169.489 531.659 168.65 530.671 168.625Z" fill="#7B83EB"></path><path opacity="0.1" d="M522.884 168.625V184.391C522.879 185.114 522.451 185.763 521.797 186.038C521.589 186.129 521.365 186.175 521.139 186.175H512.281C512.157 185.853 512.043 185.532 511.947 185.2C511.613 184.081 511.443 182.918 511.442 181.749V170.497C511.419 169.488 512.2 168.65 513.187 168.625H522.884Z" fill="black"></path><path opacity="0.2" d="M521.93 168.625V185.366C521.93 185.597 521.885 185.826 521.797 186.039C521.528 186.707 520.892 187.145 520.185 187.15H512.729C512.567 186.828 512.414 186.507 512.281 186.175C512.147 185.844 512.043 185.532 511.947 185.2C511.613 184.081 511.443 182.918 511.442 181.749V170.497C511.419 169.488 512.2 168.65 513.187 168.625H521.93Z" fill="black"></path><path opacity="0.2" d="M521.93 168.625V183.416C521.923 184.398 521.146 185.193 520.185 185.2H511.947C511.613 184.081 511.443 182.918 511.442 181.749V170.497C511.419 169.488 512.2 168.65 513.187 168.625H521.93Z" fill="black"></path><path opacity="0.2" d="M520.977 168.625V183.416C520.969 184.398 520.192 185.193 519.232 185.2H511.947C511.613 184.081 511.443 182.918 511.442 181.749V170.497C511.419 169.488 512.2 168.65 513.187 168.625H520.977Z" fill="black"></path><path opacity="0.1" d="M522.884 163.584V166.655C522.722 166.665 522.569 166.675 522.407 166.675C522.245 166.675 522.092 166.665 521.93 166.655C521.608 166.634 521.289 166.581 520.977 166.5C519.046 166.032 517.451 164.647 516.686 162.775C516.555 162.461 516.452 162.134 516.381 161.8H521.139C522.101 161.804 522.88 162.6 522.884 163.584Z" fill="black"></path><path opacity="0.2" d="M521.93 164.559V166.656C521.608 166.634 521.289 166.581 520.977 166.5C519.046 166.032 517.451 164.647 516.686 162.775H520.185C521.148 162.779 521.927 163.575 521.93 164.559Z" fill="black"></path><path opacity="0.2" d="M521.93 164.559V166.656C521.608 166.634 521.289 166.581 520.977 166.5C519.046 166.032 517.451 164.647 516.686 162.775H520.185C521.148 162.779 521.927 163.575 521.93 164.559Z" fill="black"></path><path opacity="0.2" d="M520.977 164.559V166.499C519.046 166.032 517.451 164.647 516.686 162.775H519.232C520.194 162.779 520.973 163.575 520.977 164.559Z" fill="black"></path><path d="M501.748 162.775H519.229C520.194 162.775 520.977 163.575 520.977 164.562V182.438C520.977 183.425 520.194 184.225 519.229 184.225H501.748C500.782 184.225 500 183.425 500 182.438V164.562C500 163.575 500.782 162.775 501.748 162.775Z" fill="url(#paint2_linear)"></path><path d="M515.088 169.579H511.593V179.309H509.367V169.579H505.889V167.691H515.088V169.579Z" fill="white"></path></g><circle cx="481.5" cy="154.5" r="7.5" fill="#EB5757" stroke="white" stroke-width="2"></circle><circle cx="540.5" cy="154.5" r="7.5" fill="#EB5757" stroke="white" stroke-width="2"></circle><path d="M541.52 158H540.25V153.104L538.734 153.575V152.542L541.384 151.593H541.52V158Z" fill="white"></path><path d="M482.52 158H481.25V153.104L479.734 153.575V152.542L482.384 151.593H482.52V158Z" fill="white"></path><g filter="url(#filter0_d)"><path d="M635 30C635 27.2386 632.761 25 630 25H273C270.239 25 268 27.2386 268 30V133.96C268 136.721 270.239 138.96 273 138.96H284.435C284.957 138.96 285.459 139.164 285.833 139.53L293.102 146.634C293.879 147.393 295.121 147.393 295.898 146.634L303.167 139.53C303.541 139.164 304.043 138.96 304.565 138.96H630C632.761 138.96 635 136.721 635 133.96V30Z" fill="white"></path><path d="M630 25.5H273C270.515 25.5 268.5 27.5147 268.5 30V133.96C268.5 136.445 270.515 138.46 273 138.46H284.435C285.088 138.46 285.715 138.716 286.182 139.172L293.452 146.276C294.034 146.846 294.966 146.846 295.548 146.276L302.818 139.172C303.285 138.716 303.912 138.46 304.565 138.46H630C632.485 138.46 634.5 136.445 634.5 133.96V30C634.5 27.5147 632.485 25.5 630 25.5Z" stroke="#CBD5E0"></path></g><path d="M630 25.5H273C270.515 25.5 268.5 27.5147 268.5 30V133.96C268.5 136.445 270.515 138.46 273 138.46H284.435C285.088 138.46 285.715 138.716 286.182 139.172L293.452 146.276C294.034 146.846 294.966 146.846 295.548 146.276L302.818 139.172C303.285 138.716 303.912 138.46 304.565 138.46H630C632.485 138.46 634.5 136.445 634.5 133.96V30C634.5 27.5147 632.485 25.5 630 25.5Z" fill="white" stroke="#CBD5E0"></path><path d="M630.02 25H272.98C270.23 25 268 27.2296 268 29.98H635C635 27.2296 632.77 25 630.02 25Z" fill="#EB5757"></path><path d="M291.584 63.524C292.992 62.3507 294.114 61.3753 294.95 60.598C295.786 59.806 296.482 58.9847 297.04 58.134C297.597 57.2833 297.876 56.4473 297.876 55.626C297.876 54.878 297.7 54.2913 297.348 53.866C296.996 53.4407 296.453 53.228 295.72 53.228C294.986 53.228 294.422 53.4773 294.026 53.976C293.63 54.46 293.424 55.1273 293.41 55.978H290.418C290.476 54.218 290.997 52.8833 291.98 51.974C292.977 51.0647 294.238 50.61 295.764 50.61C297.436 50.61 298.719 51.0573 299.614 51.952C300.508 52.832 300.956 53.998 300.956 55.45C300.956 56.594 300.648 57.6867 300.032 58.728C299.416 59.7693 298.712 60.6787 297.92 61.456C297.128 62.2187 296.094 63.1427 294.818 64.228H301.308V66.78H290.44V64.492L291.584 63.524ZM314.358 53.624H307.23V57.386C307.538 57.0047 307.978 56.6967 308.55 56.462C309.122 56.2127 309.731 56.088 310.376 56.088C311.55 56.088 312.51 56.3447 313.258 56.858C314.006 57.3713 314.549 58.0313 314.886 58.838C315.224 59.63 315.392 60.4807 315.392 61.39C315.392 63.0767 314.908 64.4333 313.94 65.46C312.987 66.4867 311.623 67 309.848 67C308.176 67 306.842 66.582 305.844 65.746C304.847 64.91 304.282 63.8173 304.15 62.468H307.142C307.274 63.0547 307.568 63.524 308.022 63.876C308.492 64.228 309.086 64.404 309.804 64.404C310.67 64.404 311.322 64.1327 311.762 63.59C312.202 63.0473 312.422 62.3287 312.422 61.434C312.422 60.5247 312.195 59.8353 311.74 59.366C311.3 58.882 310.648 58.64 309.782 58.64C309.166 58.64 308.653 58.794 308.242 59.102C307.832 59.41 307.538 59.8207 307.362 60.334H304.414V50.918H314.358V53.624ZM317.715 54.9C317.715 53.7853 318.037 52.9127 318.683 52.282C319.343 51.6513 320.186 51.336 321.213 51.336C322.239 51.336 323.075 51.6513 323.721 52.282C324.381 52.9127 324.711 53.7853 324.711 54.9C324.711 56.0293 324.381 56.9093 323.721 57.54C323.075 58.1707 322.239 58.486 321.213 58.486C320.186 58.486 319.343 58.1707 318.683 57.54C318.037 56.9093 317.715 56.0293 317.715 54.9ZM331.839 51.6L323.193 67H320.201L328.825 51.6H331.839ZM321.191 53.184C320.384 53.184 319.981 53.756 319.981 54.9C319.981 56.0587 320.384 56.638 321.191 56.638C321.587 56.638 321.895 56.4987 322.115 56.22C322.335 55.9267 322.445 55.4867 322.445 54.9C322.445 53.756 322.027 53.184 321.191 53.184ZM327.373 63.678C327.373 62.5487 327.695 61.676 328.341 61.06C329.001 60.4293 329.844 60.114 330.871 60.114C331.897 60.114 332.726 60.4293 333.357 61.06C334.002 61.676 334.325 62.5487 334.325 63.678C334.325 64.8073 334.002 65.6873 333.357 66.318C332.726 66.9487 331.897 67.264 330.871 67.264C329.829 67.264 328.986 66.9487 328.341 66.318C327.695 65.6873 327.373 64.8073 327.373 63.678ZM330.849 61.962C330.013 61.962 329.595 62.534 329.595 63.678C329.595 64.8367 330.013 65.416 330.849 65.416C331.67 65.416 332.081 64.8367 332.081 63.678C332.081 62.534 331.67 61.962 330.849 61.962ZM345.641 50.72V67H342.561V50.72H345.641ZM354.426 67.198C353.253 67.198 352.197 66.9413 351.258 66.428C350.319 65.9 349.579 65.1593 349.036 64.206C348.508 63.2527 348.244 62.1527 348.244 60.906C348.244 59.6593 348.515 58.5593 349.058 57.606C349.615 56.6527 350.371 55.9193 351.324 55.406C352.277 54.878 353.341 54.614 354.514 54.614C355.687 54.614 356.751 54.878 357.704 55.406C358.657 55.9193 359.405 56.6527 359.948 57.606C360.505 58.5593 360.784 59.6593 360.784 60.906C360.784 62.1527 360.498 63.2527 359.926 64.206C359.369 65.1593 358.606 65.9 357.638 66.428C356.685 66.9413 355.614 67.198 354.426 67.198ZM354.426 64.514C354.983 64.514 355.504 64.382 355.988 64.118C356.487 63.8393 356.883 63.4287 357.176 62.886C357.469 62.3433 357.616 61.6833 357.616 60.906C357.616 59.7473 357.308 58.86 356.692 58.244C356.091 57.6133 355.35 57.298 354.47 57.298C353.59 57.298 352.849 57.6133 352.248 58.244C351.661 58.86 351.368 59.7473 351.368 60.906C351.368 62.0647 351.654 62.9593 352.226 63.59C352.813 64.206 353.546 64.514 354.426 64.514ZM380.269 54.812L376.705 67H373.383L371.161 58.486L368.939 67H365.595L362.009 54.812H365.133L367.289 64.096L369.621 54.812H372.877L375.165 64.074L377.321 54.812H380.269ZM393.596 60.642C393.596 61.082 393.566 61.478 393.508 61.83H384.598C384.671 62.71 384.979 63.3993 385.522 63.898C386.064 64.3967 386.732 64.646 387.524 64.646C388.668 64.646 389.482 64.1547 389.966 63.172H393.288C392.936 64.3453 392.261 65.3133 391.264 66.076C390.266 66.824 389.042 67.198 387.59 67.198C386.416 67.198 385.36 66.9413 384.422 66.428C383.498 65.9 382.772 65.1593 382.244 64.206C381.73 63.2527 381.474 62.1527 381.474 60.906C381.474 59.6447 381.73 58.5373 382.244 57.584C382.757 56.6307 383.476 55.8973 384.4 55.384C385.324 54.8707 386.387 54.614 387.59 54.614C388.748 54.614 389.782 54.8633 390.692 55.362C391.616 55.8607 392.327 56.572 392.826 57.496C393.339 58.4053 393.596 59.454 393.596 60.642ZM390.406 59.762C390.391 58.97 390.105 58.3393 389.548 57.87C388.99 57.386 388.308 57.144 387.502 57.144C386.739 57.144 386.094 57.3787 385.566 57.848C385.052 58.3027 384.737 58.9407 384.62 59.762H390.406ZM399.254 56.704C399.65 56.0587 400.163 55.5527 400.794 55.186C401.439 54.8193 402.173 54.636 402.994 54.636V57.87H402.18C401.212 57.87 400.479 58.0973 399.98 58.552C399.496 59.0067 399.254 59.7987 399.254 60.928V67H396.174V54.812H399.254V56.704Z" fill="#EB5757"></path><path d="M293.34 95.098C292.659 95.098 292.043 94.9813 291.492 94.748C290.951 94.5147 290.521 94.1787 290.204 93.74C289.887 93.3013 289.723 92.7833 289.714 92.186H291.814C291.842 92.5873 291.982 92.9047 292.234 93.138C292.495 93.3713 292.85 93.488 293.298 93.488C293.755 93.488 294.115 93.3807 294.376 93.166C294.637 92.942 294.768 92.6527 294.768 92.298C294.768 92.0087 294.679 91.7707 294.502 91.584C294.325 91.3973 294.101 91.2527 293.83 91.15C293.569 91.038 293.205 90.9167 292.738 90.786C292.103 90.5993 291.585 90.4173 291.184 90.24C290.792 90.0533 290.451 89.778 290.162 89.414C289.882 89.0407 289.742 88.546 289.742 87.93C289.742 87.3513 289.887 86.8473 290.176 86.418C290.465 85.9887 290.871 85.662 291.394 85.438C291.917 85.2047 292.514 85.088 293.186 85.088C294.194 85.088 295.011 85.3353 295.636 85.83C296.271 86.3153 296.621 86.9967 296.686 87.874H294.53C294.511 87.538 294.367 87.2627 294.096 87.048C293.835 86.824 293.485 86.712 293.046 86.712C292.663 86.712 292.355 86.81 292.122 87.006C291.898 87.202 291.786 87.4867 291.786 87.86C291.786 88.1213 291.87 88.3407 292.038 88.518C292.215 88.686 292.43 88.826 292.682 88.938C292.943 89.0407 293.307 89.162 293.774 89.302C294.409 89.4887 294.927 89.6753 295.328 89.862C295.729 90.0487 296.075 90.3287 296.364 90.702C296.653 91.0753 296.798 91.5653 296.798 92.172C296.798 92.6947 296.663 93.18 296.392 93.628C296.121 94.076 295.725 94.4353 295.202 94.706C294.679 94.9673 294.059 95.098 293.34 95.098ZM298.203 91.094C298.203 90.31 298.357 89.6147 298.665 89.008C298.983 88.4013 299.407 87.9347 299.939 87.608C300.481 87.2813 301.083 87.118 301.745 87.118C302.324 87.118 302.828 87.2347 303.257 87.468C303.696 87.7013 304.046 87.9953 304.307 88.35V87.244H306.281V95H304.307V93.866C304.055 94.23 303.705 94.5333 303.257 94.776C302.819 95.0093 302.31 95.126 301.731 95.126C301.078 95.126 300.481 94.958 299.939 94.622C299.407 94.286 298.983 93.8147 298.665 93.208C298.357 92.592 298.203 91.8873 298.203 91.094ZM304.307 91.122C304.307 90.646 304.214 90.24 304.027 89.904C303.841 89.5587 303.589 89.2973 303.271 89.12C302.954 88.9333 302.613 88.84 302.249 88.84C301.885 88.84 301.549 88.9287 301.241 89.106C300.933 89.2833 300.681 89.5447 300.485 89.89C300.299 90.226 300.205 90.6273 300.205 91.094C300.205 91.5607 300.299 91.9713 300.485 92.326C300.681 92.6713 300.933 92.9373 301.241 93.124C301.559 93.3107 301.895 93.404 302.249 93.404C302.613 93.404 302.954 93.3153 303.271 93.138C303.589 92.9513 303.841 92.69 304.027 92.354C304.214 92.0087 304.307 91.598 304.307 91.122ZM310.366 84.64V95H308.406V84.64H310.366ZM319.722 90.954C319.722 91.234 319.703 91.486 319.666 91.71H313.996C314.043 92.27 314.239 92.7087 314.584 93.026C314.929 93.3433 315.354 93.502 315.858 93.502C316.586 93.502 317.104 93.1893 317.412 92.564H319.526C319.302 93.3107 318.873 93.9267 318.238 94.412C317.603 94.888 316.824 95.126 315.9 95.126C315.153 95.126 314.481 94.9627 313.884 94.636C313.296 94.3 312.834 93.8287 312.498 93.222C312.171 92.6153 312.008 91.9153 312.008 91.122C312.008 90.3193 312.171 89.6147 312.498 89.008C312.825 88.4013 313.282 87.9347 313.87 87.608C314.458 87.2813 315.135 87.118 315.9 87.118C316.637 87.118 317.295 87.2767 317.874 87.594C318.462 87.9113 318.915 88.364 319.232 88.952C319.559 89.5307 319.722 90.198 319.722 90.954ZM317.692 90.394C317.683 89.89 317.501 89.4887 317.146 89.19C316.791 88.882 316.357 88.728 315.844 88.728C315.359 88.728 314.948 88.8773 314.612 89.176C314.285 89.4653 314.085 89.8713 314.01 90.394H317.692ZM324.331 95.126C323.696 95.126 323.127 95.014 322.623 94.79C322.119 94.5567 321.717 94.244 321.419 93.852C321.129 93.46 320.971 93.026 320.943 92.55H322.917C322.954 92.8487 323.099 93.096 323.351 93.292C323.612 93.488 323.934 93.586 324.317 93.586C324.69 93.586 324.979 93.5113 325.185 93.362C325.399 93.2127 325.507 93.0213 325.507 92.788C325.507 92.536 325.376 92.3493 325.115 92.228C324.863 92.0973 324.457 91.9573 323.897 91.808C323.318 91.668 322.842 91.5233 322.469 91.374C322.105 91.2247 321.787 90.996 321.517 90.688C321.255 90.38 321.125 89.9647 321.125 89.442C321.125 89.0127 321.246 88.6207 321.489 88.266C321.741 87.9113 322.095 87.6313 322.553 87.426C323.019 87.2207 323.565 87.118 324.191 87.118C325.115 87.118 325.852 87.3513 326.403 87.818C326.953 88.2753 327.257 88.896 327.313 89.68H325.437C325.409 89.372 325.278 89.1293 325.045 88.952C324.821 88.7653 324.517 88.672 324.135 88.672C323.78 88.672 323.505 88.7373 323.309 88.868C323.122 88.9987 323.029 89.1807 323.029 89.414C323.029 89.6753 323.159 89.876 323.421 90.016C323.682 90.1467 324.088 90.282 324.639 90.422C325.199 90.562 325.661 90.7067 326.025 90.856C326.389 91.0053 326.701 91.2387 326.963 91.556C327.233 91.864 327.373 92.2747 327.383 92.788C327.383 93.236 327.257 93.6373 327.005 93.992C326.762 94.3467 326.407 94.6267 325.941 94.832C325.483 95.028 324.947 95.126 324.331 95.126ZM297.092 108.252C297.092 108.775 296.966 109.265 296.714 109.722C296.471 110.179 296.084 110.548 295.552 110.828C295.029 111.108 294.367 111.248 293.564 111.248H291.926V115H289.966V105.228H293.564C294.32 105.228 294.964 105.359 295.496 105.62C296.028 105.881 296.425 106.241 296.686 106.698C296.957 107.155 297.092 107.673 297.092 108.252ZM293.48 109.666C294.021 109.666 294.423 109.545 294.684 109.302C294.945 109.05 295.076 108.7 295.076 108.252C295.076 107.3 294.544 106.824 293.48 106.824H291.926V109.666H293.48ZM298.19 111.094C298.19 110.31 298.344 109.615 298.652 109.008C298.969 108.401 299.394 107.935 299.926 107.608C300.467 107.281 301.069 107.118 301.732 107.118C302.31 107.118 302.814 107.235 303.244 107.468C303.682 107.701 304.032 107.995 304.294 108.35V107.244H306.268V115H304.294V113.866C304.042 114.23 303.692 114.533 303.244 114.776C302.805 115.009 302.296 115.126 301.718 115.126C301.064 115.126 300.467 114.958 299.926 114.622C299.394 114.286 298.969 113.815 298.652 113.208C298.344 112.592 298.19 111.887 298.19 111.094ZM304.294 111.122C304.294 110.646 304.2 110.24 304.014 109.904C303.827 109.559 303.575 109.297 303.258 109.12C302.94 108.933 302.6 108.84 302.236 108.84C301.872 108.84 301.536 108.929 301.228 109.106C300.92 109.283 300.668 109.545 300.472 109.89C300.285 110.226 300.192 110.627 300.192 111.094C300.192 111.561 300.285 111.971 300.472 112.326C300.668 112.671 300.92 112.937 301.228 113.124C301.545 113.311 301.881 113.404 302.236 113.404C302.6 113.404 302.94 113.315 303.258 113.138C303.575 112.951 303.827 112.69 304.014 112.354C304.2 112.009 304.294 111.598 304.294 111.122ZM309.386 106.32C309.041 106.32 308.751 106.213 308.518 105.998C308.294 105.774 308.182 105.499 308.182 105.172C308.182 104.845 308.294 104.575 308.518 104.36C308.751 104.136 309.041 104.024 309.386 104.024C309.731 104.024 310.016 104.136 310.24 104.36C310.473 104.575 310.59 104.845 310.59 105.172C310.59 105.499 310.473 105.774 310.24 105.998C310.016 106.213 309.731 106.32 309.386 106.32ZM310.352 107.244V115H308.392V107.244H310.352ZM311.994 111.094C311.994 110.31 312.148 109.615 312.456 109.008C312.774 108.401 313.203 107.935 313.744 107.608C314.286 107.281 314.888 107.118 315.55 107.118C316.054 107.118 316.535 107.23 316.992 107.454C317.45 107.669 317.814 107.958 318.084 108.322V104.64H320.072V115H318.084V113.852C317.842 114.235 317.501 114.543 317.062 114.776C316.624 115.009 316.115 115.126 315.536 115.126C314.883 115.126 314.286 114.958 313.744 114.622C313.203 114.286 312.774 113.815 312.456 113.208C312.148 112.592 311.994 111.887 311.994 111.094ZM318.098 111.122C318.098 110.646 318.005 110.24 317.818 109.904C317.632 109.559 317.38 109.297 317.062 109.12C316.745 108.933 316.404 108.84 316.04 108.84C315.676 108.84 315.34 108.929 315.032 109.106C314.724 109.283 314.472 109.545 314.276 109.89C314.09 110.226 313.996 110.627 313.996 111.094C313.996 111.561 314.09 111.971 314.276 112.326C314.472 112.671 314.724 112.937 315.032 113.124C315.35 113.311 315.686 113.404 316.04 113.404C316.404 113.404 316.745 113.315 317.062 113.138C317.38 112.951 317.632 112.69 317.818 112.354C318.005 112.009 318.098 111.598 318.098 111.122ZM329.117 115.098C328.435 115.098 327.819 114.981 327.269 114.748C326.727 114.515 326.298 114.179 325.981 113.74C325.663 113.301 325.5 112.783 325.491 112.186H327.591C327.619 112.587 327.759 112.905 328.011 113.138C328.272 113.371 328.627 113.488 329.075 113.488C329.532 113.488 329.891 113.381 330.153 113.166C330.414 112.942 330.545 112.653 330.545 112.298C330.545 112.009 330.456 111.771 330.279 111.584C330.101 111.397 329.877 111.253 329.607 111.15C329.345 111.038 328.981 110.917 328.515 110.786C327.88 110.599 327.362 110.417 326.961 110.24C326.569 110.053 326.228 109.778 325.939 109.414C325.659 109.041 325.519 108.546 325.519 107.93C325.519 107.351 325.663 106.847 325.953 106.418C326.242 105.989 326.648 105.662 327.171 105.438C327.693 105.205 328.291 105.088 328.963 105.088C329.971 105.088 330.787 105.335 331.413 105.83C332.047 106.315 332.397 106.997 332.463 107.874H330.307C330.288 107.538 330.143 107.263 329.873 107.048C329.611 106.824 329.261 106.712 328.823 106.712C328.44 106.712 328.132 106.81 327.899 107.006C327.675 107.202 327.563 107.487 327.563 107.86C327.563 108.121 327.647 108.341 327.815 108.518C327.992 108.686 328.207 108.826 328.459 108.938C328.72 109.041 329.084 109.162 329.551 109.302C330.185 109.489 330.703 109.675 331.105 109.862C331.506 110.049 331.851 110.329 332.141 110.702C332.43 111.075 332.575 111.565 332.575 112.172C332.575 112.695 332.439 113.18 332.169 113.628C331.898 114.076 331.501 114.435 330.979 114.706C330.456 114.967 329.835 115.098 329.117 115.098ZM341.694 110.954C341.694 111.234 341.675 111.486 341.638 111.71H335.968C336.014 112.27 336.21 112.709 336.556 113.026C336.901 113.343 337.326 113.502 337.83 113.502C338.558 113.502 339.076 113.189 339.384 112.564H341.498C341.274 113.311 340.844 113.927 340.21 114.412C339.575 114.888 338.796 115.126 337.872 115.126C337.125 115.126 336.453 114.963 335.856 114.636C335.268 114.3 334.806 113.829 334.47 113.222C334.143 112.615 333.98 111.915 333.98 111.122C333.98 110.319 334.143 109.615 334.47 109.008C334.796 108.401 335.254 107.935 335.842 107.608C336.43 107.281 337.106 107.118 337.872 107.118C338.609 107.118 339.267 107.277 339.846 107.594C340.434 107.911 340.886 108.364 341.204 108.952C341.53 109.531 341.694 110.198 341.694 110.954ZM339.664 110.394C339.654 109.89 339.472 109.489 339.118 109.19C338.763 108.882 338.329 108.728 337.816 108.728C337.33 108.728 336.92 108.877 336.584 109.176C336.257 109.465 336.056 109.871 335.982 110.394H339.664ZM342.83 111.094C342.83 110.31 342.984 109.615 343.292 109.008C343.61 108.401 344.034 107.935 344.566 107.608C345.108 107.281 345.71 107.118 346.372 107.118C346.951 107.118 347.455 107.235 347.884 107.468C348.323 107.701 348.673 107.995 348.934 108.35V107.244H350.908V115H348.934V113.866C348.682 114.23 348.332 114.533 347.884 114.776C347.446 115.009 346.937 115.126 346.358 115.126C345.705 115.126 345.108 114.958 344.566 114.622C344.034 114.286 343.61 113.815 343.292 113.208C342.984 112.592 342.83 111.887 342.83 111.094ZM348.934 111.122C348.934 110.646 348.841 110.24 348.654 109.904C348.468 109.559 348.216 109.297 347.898 109.12C347.581 108.933 347.24 108.84 346.876 108.84C346.512 108.84 346.176 108.929 345.868 109.106C345.56 109.283 345.308 109.545 345.112 109.89C344.926 110.226 344.832 110.627 344.832 111.094C344.832 111.561 344.926 111.971 345.112 112.326C345.308 112.671 345.56 112.937 345.868 113.124C346.186 113.311 346.522 113.404 346.876 113.404C347.24 113.404 347.581 113.315 347.898 113.138C348.216 112.951 348.468 112.69 348.654 112.354C348.841 112.009 348.934 111.598 348.934 111.122ZM354.993 108.448C355.245 108.037 355.571 107.715 355.973 107.482C356.383 107.249 356.85 107.132 357.373 107.132V109.19H356.855C356.239 109.19 355.772 109.335 355.455 109.624C355.147 109.913 354.993 110.417 354.993 111.136V115H353.033V107.244H354.993V108.448ZM358.399 111.122C358.399 110.319 358.562 109.619 358.889 109.022C359.216 108.415 359.668 107.949 360.247 107.622C360.826 107.286 361.488 107.118 362.235 107.118C363.196 107.118 363.99 107.361 364.615 107.846C365.25 108.322 365.674 108.994 365.889 109.862H363.775C363.663 109.526 363.472 109.265 363.201 109.078C362.94 108.882 362.613 108.784 362.221 108.784C361.661 108.784 361.218 108.989 360.891 109.4C360.564 109.801 360.401 110.375 360.401 111.122C360.401 111.859 360.564 112.433 360.891 112.844C361.218 113.245 361.661 113.446 362.221 113.446C363.014 113.446 363.532 113.091 363.775 112.382H365.889C365.674 113.222 365.25 113.889 364.615 114.384C363.98 114.879 363.187 115.126 362.235 115.126C361.488 115.126 360.826 114.963 360.247 114.636C359.668 114.3 359.216 113.833 358.889 113.236C358.562 112.629 358.399 111.925 358.399 111.122ZM371.903 107.132C372.491 107.132 373.013 107.263 373.471 107.524C373.928 107.776 374.283 108.154 374.535 108.658C374.796 109.153 374.927 109.75 374.927 110.45V115H372.967V110.716C372.967 110.1 372.813 109.629 372.505 109.302C372.197 108.966 371.777 108.798 371.245 108.798C370.703 108.798 370.274 108.966 369.957 109.302C369.649 109.629 369.495 110.1 369.495 110.716V115H367.535V104.64H369.495V108.21C369.747 107.874 370.083 107.613 370.503 107.426C370.923 107.23 371.389 107.132 371.903 107.132ZM383.935 117.758C383.029 116.881 382.325 115.761 381.821 114.398C381.326 113.035 381.079 111.575 381.079 110.016C381.079 108.42 381.34 106.922 381.863 105.522C382.385 104.113 383.146 102.96 384.145 102.064H386.119V102.246C385.092 103.226 384.308 104.402 383.767 105.774C383.235 107.146 382.969 108.56 382.969 110.016C382.969 111.435 383.221 112.807 383.725 114.132C384.238 115.448 384.966 116.591 385.909 117.562V117.758H383.935ZM393.515 109.176V110.828H387.579V109.176H393.515ZM402.966 113.474V115.042H396.176L395.868 114.034C396.288 113.623 396.596 113.208 396.792 112.788C396.988 112.359 397.086 111.827 397.086 111.192C397.086 111.127 397.076 111.019 397.058 110.87H395.504V109.526H396.666C396.479 108.891 396.386 108.317 396.386 107.804C396.386 107.169 396.521 106.623 396.792 106.166C397.072 105.699 397.459 105.345 397.954 105.102C398.448 104.859 399.018 104.738 399.662 104.738C400.698 104.738 401.486 105.027 402.028 105.606C402.578 106.175 402.868 106.908 402.896 107.804H401.09C401.08 107.356 400.964 107.006 400.74 106.754C400.516 106.493 400.166 106.362 399.69 106.362C399.251 106.362 398.901 106.493 398.64 106.754C398.388 107.015 398.262 107.417 398.262 107.958C398.262 108.201 398.285 108.443 398.332 108.686C398.388 108.919 398.467 109.199 398.57 109.526H401.202V110.87H398.92C398.938 111.019 398.948 111.131 398.948 111.206C398.948 111.607 398.868 112.009 398.71 112.41C398.56 112.802 398.327 113.157 398.01 113.474H402.966ZM404.832 106.6V104.794H408.206V115H406.19V106.6H404.832ZM410.352 109.764C410.352 108.149 410.641 106.885 411.22 105.97C411.808 105.055 412.779 104.598 414.132 104.598C415.485 104.598 416.451 105.055 417.03 105.97C417.618 106.885 417.912 108.149 417.912 109.764C417.912 111.388 417.618 112.662 417.03 113.586C416.451 114.51 415.485 114.972 414.132 114.972C412.779 114.972 411.808 114.51 411.22 113.586C410.641 112.662 410.352 111.388 410.352 109.764ZM415.98 109.764C415.98 109.073 415.933 108.495 415.84 108.028C415.756 107.552 415.579 107.165 415.308 106.866C415.047 106.567 414.655 106.418 414.132 106.418C413.609 106.418 413.213 106.567 412.942 106.866C412.681 107.165 412.503 107.552 412.41 108.028C412.326 108.495 412.284 109.073 412.284 109.764C412.284 110.473 412.326 111.071 412.41 111.556C412.494 112.032 412.671 112.419 412.942 112.718C413.213 113.007 413.609 113.152 414.132 113.152C414.655 113.152 415.051 113.007 415.322 112.718C415.593 112.419 415.77 112.032 415.854 111.556C415.938 111.071 415.98 110.473 415.98 109.764ZM420.705 115.098C420.35 115.098 420.056 114.991 419.823 114.776C419.599 114.552 419.487 114.277 419.487 113.95C419.487 113.623 419.599 113.353 419.823 113.138C420.056 112.914 420.35 112.802 420.705 112.802C421.05 112.802 421.335 112.914 421.559 113.138C421.783 113.353 421.895 113.623 421.895 113.95C421.895 114.277 421.783 114.552 421.559 114.776C421.335 114.991 421.05 115.098 420.705 115.098ZM424.075 112.788C424.971 112.041 425.685 111.421 426.217 110.926C426.749 110.422 427.193 109.899 427.547 109.358C427.902 108.817 428.079 108.285 428.079 107.762C428.079 107.286 427.967 106.913 427.743 106.642C427.519 106.371 427.174 106.236 426.707 106.236C426.241 106.236 425.881 106.395 425.629 106.712C425.377 107.02 425.247 107.445 425.237 107.986H423.333C423.371 106.866 423.702 106.017 424.327 105.438C424.962 104.859 425.765 104.57 426.735 104.57C427.799 104.57 428.616 104.855 429.185 105.424C429.755 105.984 430.039 106.726 430.039 107.65C430.039 108.378 429.843 109.073 429.451 109.736C429.059 110.399 428.611 110.977 428.107 111.472C427.603 111.957 426.945 112.545 426.133 113.236H430.263V114.86H423.347V113.404L424.075 112.788ZM437.449 115L433.893 110.646V115H431.933V105.228H433.893V109.61L437.449 105.228H439.815L435.783 110.072L439.927 115H437.449ZM440.922 117.758V117.562C441.864 116.591 442.588 115.448 443.092 114.132C443.605 112.807 443.862 111.435 443.862 110.016C443.862 108.56 443.591 107.146 443.05 105.774C442.518 104.402 441.738 103.226 440.712 102.246V102.064H442.686C443.684 102.96 444.445 104.113 444.968 105.522C445.49 106.922 445.752 108.42 445.752 110.016C445.752 111.575 445.5 113.035 444.996 114.398C444.501 115.761 443.801 116.881 442.896 117.758H440.922ZM450.573 112.942L448.935 116.876H447.675L448.585 112.942H450.573ZM459.115 115.098C458.434 115.098 457.818 114.981 457.267 114.748C456.726 114.515 456.297 114.179 455.979 113.74C455.662 113.301 455.499 112.783 455.489 112.186H457.589C457.617 112.587 457.757 112.905 458.009 113.138C458.271 113.371 458.625 113.488 459.073 113.488C459.531 113.488 459.89 113.381 460.151 113.166C460.413 112.942 460.543 112.653 460.543 112.298C460.543 112.009 460.455 111.771 460.277 111.584C460.1 111.397 459.876 111.253 459.605 111.15C459.344 111.038 458.98 110.917 458.513 110.786C457.879 110.599 457.361 110.417 456.959 110.24C456.567 110.053 456.227 109.778 455.937 109.414C455.657 109.041 455.517 108.546 455.517 107.93C455.517 107.351 455.662 106.847 455.951 106.418C456.241 105.989 456.647 105.662 457.169 105.438C457.692 105.205 458.289 105.088 458.961 105.088C459.969 105.088 460.786 105.335 461.411 105.83C462.046 106.315 462.396 106.997 462.461 107.874H460.305C460.287 107.538 460.142 107.263 459.871 107.048C459.61 106.824 459.26 106.712 458.821 106.712C458.439 106.712 458.131 106.81 457.897 107.006C457.673 107.202 457.561 107.487 457.561 107.86C457.561 108.121 457.645 108.341 457.813 108.518C457.991 108.686 458.205 108.826 458.457 108.938C458.719 109.041 459.083 109.162 459.549 109.302C460.184 109.489 460.702 109.675 461.103 109.862C461.505 110.049 461.85 110.329 462.139 110.702C462.429 111.075 462.573 111.565 462.573 112.172C462.573 112.695 462.438 113.18 462.167 113.628C461.897 114.076 461.5 114.435 460.977 114.706C460.455 114.967 459.834 115.098 459.115 115.098ZM466.443 106.81V109.26H469.733V110.814H466.443V113.404H470.153V115H464.483V105.214H470.153V106.81H466.443ZM476.68 115.098C475.765 115.098 474.925 114.883 474.16 114.454C473.394 114.025 472.788 113.432 472.34 112.676C471.892 111.911 471.668 111.047 471.668 110.086C471.668 109.134 471.892 108.28 472.34 107.524C472.788 106.759 473.394 106.161 474.16 105.732C474.925 105.303 475.765 105.088 476.68 105.088C477.604 105.088 478.444 105.303 479.2 105.732C479.965 106.161 480.567 106.759 481.006 107.524C481.454 108.28 481.678 109.134 481.678 110.086C481.678 111.047 481.454 111.911 481.006 112.676C480.567 113.432 479.965 114.025 479.2 114.454C478.434 114.883 477.594 115.098 476.68 115.098ZM476.68 113.348C477.268 113.348 477.786 113.217 478.234 112.956C478.682 112.685 479.032 112.303 479.284 111.808C479.536 111.313 479.662 110.739 479.662 110.086C479.662 109.433 479.536 108.863 479.284 108.378C479.032 107.883 478.682 107.505 478.234 107.244C477.786 106.983 477.268 106.852 476.68 106.852C476.092 106.852 475.569 106.983 475.112 107.244C474.664 107.505 474.314 107.883 474.062 108.378C473.81 108.863 473.684 109.433 473.684 110.086C473.684 110.739 473.81 111.313 474.062 111.808C474.314 112.303 474.664 112.685 475.112 112.956C475.569 113.217 476.092 113.348 476.68 113.348ZM490.28 117.758C489.375 116.881 488.67 115.761 488.166 114.398C487.671 113.035 487.424 111.575 487.424 110.016C487.424 108.42 487.685 106.922 488.208 105.522C488.731 104.113 489.491 102.96 490.49 102.064H492.464V102.246C491.437 103.226 490.653 104.402 490.112 105.774C489.58 107.146 489.314 108.56 489.314 110.016C489.314 111.435 489.566 112.807 490.07 114.132C490.583 115.448 491.311 116.591 492.254 117.562V117.758H490.28ZM499.861 109.176V110.828H493.925V109.176H499.861ZM509.311 113.474V115.042H502.521L502.213 114.034C502.633 113.623 502.941 113.208 503.137 112.788C503.333 112.359 503.431 111.827 503.431 111.192C503.431 111.127 503.422 111.019 503.403 110.87H501.849V109.526H503.011C502.824 108.891 502.731 108.317 502.731 107.804C502.731 107.169 502.866 106.623 503.137 106.166C503.417 105.699 503.804 105.345 504.299 105.102C504.794 104.859 505.363 104.738 506.007 104.738C507.043 104.738 507.832 105.027 508.373 105.606C508.924 106.175 509.213 106.908 509.241 107.804H507.435C507.426 107.356 507.309 107.006 507.085 106.754C506.861 106.493 506.511 106.362 506.035 106.362C505.596 106.362 505.246 106.493 504.985 106.754C504.733 107.015 504.607 107.417 504.607 107.958C504.607 108.201 504.63 108.443 504.677 108.686C504.733 108.919 504.812 109.199 504.915 109.526H507.547V110.87H505.265C505.284 111.019 505.293 111.131 505.293 111.206C505.293 111.607 505.214 112.009 505.055 112.41C504.906 112.802 504.672 113.157 504.355 113.474H509.311ZM511.331 113.012V111.472L515.909 104.92H518.191V111.304H519.423V113.012H518.191V115H516.231V113.012H511.331ZM516.357 107.02L513.487 111.304H516.357V107.02ZM521.973 115.098C521.618 115.098 521.324 114.991 521.091 114.776C520.867 114.552 520.755 114.277 520.755 113.95C520.755 113.623 520.867 113.353 521.091 113.138C521.324 112.914 521.618 112.802 521.973 112.802C522.318 112.802 522.603 112.914 522.827 113.138C523.051 113.353 523.163 113.623 523.163 113.95C523.163 114.277 523.051 114.552 522.827 114.776C522.603 114.991 522.318 115.098 521.973 115.098ZM531.588 106.488H527.052V108.882C527.248 108.639 527.528 108.443 527.892 108.294C528.256 108.135 528.643 108.056 529.054 108.056C529.8 108.056 530.412 108.219 530.888 108.546C531.364 108.873 531.709 109.293 531.924 109.806C532.138 110.31 532.246 110.851 532.246 111.43C532.246 112.503 531.938 113.367 531.322 114.02C530.715 114.673 529.847 115 528.718 115C527.654 115 526.804 114.734 526.17 114.202C525.535 113.67 525.176 112.975 525.092 112.116H526.996C527.08 112.489 527.266 112.788 527.556 113.012C527.854 113.236 528.232 113.348 528.69 113.348C529.24 113.348 529.656 113.175 529.936 112.83C530.216 112.485 530.356 112.027 530.356 111.458C530.356 110.879 530.211 110.441 529.922 110.142C529.642 109.834 529.226 109.68 528.676 109.68C528.284 109.68 527.957 109.778 527.696 109.974C527.434 110.17 527.248 110.431 527.136 110.758H525.26V104.766H531.588V106.488ZM539.687 115L536.131 110.646V115H534.171V105.228H536.131V109.61L539.687 105.228H542.053L538.021 110.072L542.165 115H539.687ZM543.161 117.758V117.562C544.103 116.591 544.827 115.448 545.331 114.132C545.844 112.807 546.101 111.435 546.101 110.016C546.101 108.56 545.83 107.146 545.289 105.774C544.757 104.402 543.977 103.226 542.951 102.246V102.064H544.925C545.923 102.96 546.684 104.113 547.207 105.522C547.729 106.922 547.991 108.42 547.991 110.016C547.991 111.575 547.739 113.035 547.235 114.398C546.74 115.761 546.04 116.881 545.135 117.758H543.161Z" fill="#2D3748"></path><path d="M333.944 86.264C333.655 86.264 333.412 86.166 333.216 85.97C333.02 85.774 332.922 85.5313 332.922 85.242C332.922 84.9527 333.02 84.71 333.216 84.514C333.412 84.318 333.655 84.22 333.944 84.22C334.224 84.22 334.462 84.318 334.658 84.514C334.854 84.71 334.952 84.9527 334.952 85.242C334.952 85.5313 334.854 85.774 334.658 85.97C334.462 86.166 334.224 86.264 333.944 86.264ZM334.728 87.286V95H333.132V87.286H334.728ZM339.834 95.126C339.227 95.126 338.681 95.0187 338.196 94.804C337.72 94.58 337.342 94.2813 337.062 93.908C336.782 93.5253 336.632 93.1007 336.614 92.634H338.266C338.294 92.9607 338.448 93.236 338.728 93.46C339.017 93.6747 339.376 93.782 339.806 93.782C340.254 93.782 340.599 93.698 340.842 93.53C341.094 93.3527 341.22 93.1287 341.22 92.858C341.22 92.5687 341.08 92.354 340.8 92.214C340.529 92.074 340.095 91.92 339.498 91.752C338.919 91.5933 338.448 91.4393 338.084 91.29C337.72 91.1407 337.402 90.912 337.132 90.604C336.87 90.296 336.74 89.89 336.74 89.386C336.74 88.9753 336.861 88.602 337.104 88.266C337.346 87.9207 337.692 87.65 338.14 87.454C338.597 87.258 339.12 87.16 339.708 87.16C340.585 87.16 341.29 87.384 341.822 87.832C342.363 88.2707 342.652 88.8727 342.69 89.638H341.094C341.066 89.2927 340.926 89.0173 340.674 88.812C340.422 88.6067 340.081 88.504 339.652 88.504C339.232 88.504 338.91 88.5833 338.686 88.742C338.462 88.9007 338.35 89.1107 338.35 89.372C338.35 89.5773 338.424 89.75 338.574 89.89C338.723 90.03 338.905 90.142 339.12 90.226C339.334 90.3007 339.652 90.3987 340.072 90.52C340.632 90.6693 341.089 90.8233 341.444 90.982C341.808 91.1313 342.12 91.3553 342.382 91.654C342.643 91.9527 342.778 92.3493 342.788 92.844C342.788 93.2827 342.666 93.6747 342.424 94.02C342.181 94.3653 341.836 94.636 341.388 94.832C340.949 95.028 340.431 95.126 339.834 95.126ZM426.127 88.588V92.858C426.127 93.1473 426.192 93.3573 426.323 93.488C426.463 93.6093 426.696 93.67 427.023 93.67H428.003V95H426.743C426.024 95 425.473 94.832 425.091 94.496C424.708 94.16 424.517 93.614 424.517 92.858V88.588H423.607V87.286H424.517V85.368H426.127V87.286H428.003V88.588H426.127ZM433.674 87.16C434.262 87.16 434.784 87.286 435.242 87.538C435.708 87.79 436.072 88.1633 436.334 88.658C436.604 89.1527 436.74 89.75 436.74 90.45V95H435.158V90.688C435.158 89.9973 434.985 89.47 434.64 89.106C434.294 88.7327 433.823 88.546 433.226 88.546C432.628 88.546 432.152 88.7327 431.798 89.106C431.452 89.47 431.28 89.9973 431.28 90.688V95H429.684V84.64H431.28V88.182C431.55 87.8553 431.891 87.6033 432.302 87.426C432.722 87.2487 433.179 87.16 433.674 87.16ZM438.453 91.108C438.453 90.3333 438.612 89.6473 438.929 89.05C439.256 88.4527 439.695 87.9907 440.245 87.664C440.805 87.328 441.421 87.16 442.093 87.16C442.7 87.16 443.227 87.2813 443.675 87.524C444.133 87.7573 444.497 88.0513 444.767 88.406V87.286H446.377V95H444.767V93.852C444.497 94.216 444.128 94.5193 443.661 94.762C443.195 95.0047 442.663 95.126 442.065 95.126C441.403 95.126 440.796 94.958 440.245 94.622C439.695 94.2767 439.256 93.8007 438.929 93.194C438.612 92.578 438.453 91.8827 438.453 91.108ZM444.767 91.136C444.767 90.604 444.655 90.142 444.431 89.75C444.217 89.358 443.932 89.0593 443.577 88.854C443.223 88.6487 442.84 88.546 442.429 88.546C442.019 88.546 441.636 88.6487 441.281 88.854C440.927 89.05 440.637 89.344 440.413 89.736C440.199 90.1187 440.091 90.576 440.091 91.108C440.091 91.64 440.199 92.1067 440.413 92.508C440.637 92.9093 440.927 93.2173 441.281 93.432C441.645 93.6373 442.028 93.74 442.429 93.74C442.84 93.74 443.223 93.6373 443.577 93.432C443.932 93.2267 444.217 92.928 444.431 92.536C444.655 92.1347 444.767 91.668 444.767 91.136ZM452.576 87.16C453.182 87.16 453.724 87.286 454.2 87.538C454.685 87.79 455.063 88.1633 455.334 88.658C455.604 89.1527 455.74 89.75 455.74 90.45V95H454.158V90.688C454.158 89.9973 453.985 89.47 453.64 89.106C453.294 88.7327 452.823 88.546 452.226 88.546C451.628 88.546 451.152 88.7327 450.798 89.106C450.452 89.47 450.28 89.9973 450.28 90.688V95H448.684V87.286H450.28V88.168C450.541 87.8507 450.872 87.6033 451.274 87.426C451.684 87.2487 452.118 87.16 452.576 87.16ZM468.818 87.286V95H467.222V94.09C466.97 94.4073 466.639 94.6593 466.228 94.846C465.827 95.0233 465.398 95.112 464.94 95.112C464.334 95.112 463.788 94.986 463.302 94.734C462.826 94.482 462.448 94.1087 462.168 93.614C461.898 93.1193 461.762 92.522 461.762 91.822V87.286H463.344V91.584C463.344 92.2747 463.517 92.8067 463.862 93.18C464.208 93.544 464.679 93.726 465.276 93.726C465.874 93.726 466.345 93.544 466.69 93.18C467.045 92.8067 467.222 92.2747 467.222 91.584V87.286H468.818ZM473.934 95.126C473.327 95.126 472.781 95.0187 472.296 94.804C471.82 94.58 471.442 94.2813 471.162 93.908C470.882 93.5253 470.733 93.1007 470.714 92.634H472.366C472.394 92.9607 472.548 93.236 472.828 93.46C473.117 93.6747 473.477 93.782 473.906 93.782C474.354 93.782 474.699 93.698 474.942 93.53C475.194 93.3527 475.32 93.1287 475.32 92.858C475.32 92.5687 475.18 92.354 474.9 92.214C474.629 92.074 474.195 91.92 473.598 91.752C473.019 91.5933 472.548 91.4393 472.184 91.29C471.82 91.1407 471.503 90.912 471.232 90.604C470.971 90.296 470.84 89.89 470.84 89.386C470.84 88.9753 470.961 88.602 471.204 88.266C471.447 87.9207 471.792 87.65 472.24 87.454C472.697 87.258 473.22 87.16 473.808 87.16C474.685 87.16 475.39 87.384 475.922 87.832C476.463 88.2707 476.753 88.8727 476.79 89.638H475.194C475.166 89.2927 475.026 89.0173 474.774 88.812C474.522 88.6067 474.181 88.504 473.752 88.504C473.332 88.504 473.01 88.5833 472.786 88.742C472.562 88.9007 472.45 89.1107 472.45 89.372C472.45 89.5773 472.525 89.75 472.674 89.89C472.823 90.03 473.005 90.142 473.22 90.226C473.435 90.3007 473.752 90.3987 474.172 90.52C474.732 90.6693 475.189 90.8233 475.544 90.982C475.908 91.1313 476.221 91.3553 476.482 91.654C476.743 91.9527 476.879 92.3493 476.888 92.844C476.888 93.2827 476.767 93.6747 476.524 94.02C476.281 94.3653 475.936 94.636 475.488 94.832C475.049 95.028 474.531 95.126 473.934 95.126ZM485.809 87.286V95H484.213V94.09C483.961 94.4073 483.629 94.6593 483.219 94.846C482.817 95.0233 482.388 95.112 481.931 95.112C481.324 95.112 480.778 94.986 480.293 94.734C479.817 94.482 479.439 94.1087 479.159 93.614C478.888 93.1193 478.753 92.522 478.753 91.822V87.286H480.335V91.584C480.335 92.2747 480.507 92.8067 480.853 93.18C481.198 93.544 481.669 93.726 482.267 93.726C482.864 93.726 483.335 93.544 483.681 93.18C484.035 92.8067 484.213 92.2747 484.213 91.584V87.286H485.809ZM487.592 91.108C487.592 90.3333 487.751 89.6473 488.068 89.05C488.395 88.4527 488.834 87.9907 489.384 87.664C489.944 87.328 490.56 87.16 491.232 87.16C491.839 87.16 492.366 87.2813 492.814 87.524C493.272 87.7573 493.636 88.0513 493.906 88.406V87.286H495.516V95H493.906V93.852C493.636 94.216 493.267 94.5193 492.8 94.762C492.334 95.0047 491.802 95.126 491.204 95.126C490.542 95.126 489.935 94.958 489.384 94.622C488.834 94.2767 488.395 93.8007 488.068 93.194C487.751 92.578 487.592 91.8827 487.592 91.108ZM493.906 91.136C493.906 90.604 493.794 90.142 493.57 89.75C493.356 89.358 493.071 89.0593 492.716 88.854C492.362 88.6487 491.979 88.546 491.568 88.546C491.158 88.546 490.775 88.6487 490.42 88.854C490.066 89.05 489.776 89.344 489.552 89.736C489.338 90.1187 489.23 90.576 489.23 91.108C489.23 91.64 489.338 92.1067 489.552 92.508C489.776 92.9093 490.066 93.2173 490.42 93.432C490.784 93.6373 491.167 93.74 491.568 93.74C491.979 93.74 492.362 93.6373 492.716 93.432C493.071 93.2267 493.356 92.928 493.57 92.536C493.794 92.1347 493.906 91.668 493.906 91.136ZM499.419 84.64V95H497.823V84.64H499.419ZM505.039 91.108C505.039 90.3333 505.197 89.6473 505.515 89.05C505.841 88.4527 506.28 87.9907 506.831 87.664C507.391 87.328 508.011 87.16 508.693 87.16C509.197 87.16 509.691 87.272 510.177 87.496C510.671 87.7107 511.063 88 511.353 88.364V84.64H512.963V95H511.353V93.838C511.091 94.2113 510.727 94.5193 510.261 94.762C509.803 95.0047 509.276 95.126 508.679 95.126C508.007 95.126 507.391 94.958 506.831 94.622C506.28 94.2767 505.841 93.8007 505.515 93.194C505.197 92.578 505.039 91.8827 505.039 91.108ZM511.353 91.136C511.353 90.604 511.241 90.142 511.017 89.75C510.802 89.358 510.517 89.0593 510.163 88.854C509.808 88.6487 509.425 88.546 509.015 88.546C508.604 88.546 508.221 88.6487 507.867 88.854C507.512 89.05 507.223 89.344 506.999 89.736C506.784 90.1187 506.677 90.576 506.677 91.108C506.677 91.64 506.784 92.1067 506.999 92.508C507.223 92.9093 507.512 93.2173 507.867 93.432C508.231 93.6373 508.613 93.74 509.015 93.74C509.425 93.74 509.808 93.6373 510.163 93.432C510.517 93.2267 510.802 92.928 511.017 92.536C511.241 92.1347 511.353 91.668 511.353 91.136ZM522.255 87.286V95H520.659V94.09C520.407 94.4073 520.076 94.6593 519.665 94.846C519.264 95.0233 518.834 95.112 518.377 95.112C517.77 95.112 517.224 94.986 516.739 94.734C516.263 94.482 515.885 94.1087 515.605 93.614C515.334 93.1193 515.199 92.522 515.199 91.822V87.286H516.781V91.584C516.781 92.2747 516.954 92.8067 517.299 93.18C517.644 93.544 518.116 93.726 518.713 93.726C519.31 93.726 519.782 93.544 520.127 93.18C520.482 92.8067 520.659 92.2747 520.659 91.584V87.286H522.255ZM531.641 90.954C531.641 91.2433 531.622 91.5047 531.585 91.738H525.691C525.737 92.354 525.966 92.8487 526.377 93.222C526.787 93.5953 527.291 93.782 527.889 93.782C528.747 93.782 529.354 93.4227 529.709 92.704H531.431C531.197 93.4133 530.773 93.9967 530.157 94.454C529.55 94.902 528.794 95.126 527.889 95.126C527.151 95.126 526.489 94.9627 525.901 94.636C525.322 94.3 524.865 93.8333 524.529 93.236C524.202 92.6293 524.039 91.9293 524.039 91.136C524.039 90.3427 524.197 89.6473 524.515 89.05C524.841 88.4433 525.294 87.9767 525.873 87.65C526.461 87.3233 527.133 87.16 527.889 87.16C528.617 87.16 529.265 87.3187 529.835 87.636C530.404 87.9533 530.847 88.4013 531.165 88.98C531.482 89.5493 531.641 90.2073 531.641 90.954ZM529.975 90.45C529.965 89.862 529.755 89.3907 529.345 89.036C528.934 88.6813 528.425 88.504 527.819 88.504C527.268 88.504 526.797 88.6813 526.405 89.036C526.013 89.3813 525.779 89.8527 525.705 90.45H529.975ZM539.13 88.588V92.858C539.13 93.1473 539.195 93.3573 539.326 93.488C539.466 93.6093 539.699 93.67 540.026 93.67H541.006V95H539.746C539.027 95 538.477 94.832 538.094 94.496C537.711 94.16 537.52 93.614 537.52 92.858V88.588H536.61V87.286H537.52V85.368H539.13V87.286H541.006V88.588H539.13ZM546.033 95.126C545.305 95.126 544.647 94.9627 544.059 94.636C543.471 94.3 543.009 93.8333 542.673 93.236C542.337 92.6293 542.169 91.9293 542.169 91.136C542.169 90.352 542.342 89.6567 542.687 89.05C543.032 88.4433 543.504 87.9767 544.101 87.65C544.698 87.3233 545.366 87.16 546.103 87.16C546.84 87.16 547.508 87.3233 548.105 87.65C548.702 87.9767 549.174 88.4433 549.519 89.05C549.864 89.6567 550.037 90.352 550.037 91.136C550.037 91.92 549.86 92.6153 549.505 93.222C549.15 93.8287 548.665 94.3 548.049 94.636C547.442 94.9627 546.77 95.126 546.033 95.126ZM546.033 93.74C546.444 93.74 546.826 93.642 547.181 93.446C547.545 93.25 547.839 92.956 548.063 92.564C548.287 92.172 548.399 91.696 548.399 91.136C548.399 90.576 548.292 90.1047 548.077 89.722C547.862 89.33 547.578 89.036 547.223 88.84C546.868 88.644 546.486 88.546 546.075 88.546C545.664 88.546 545.282 88.644 544.927 88.84C544.582 89.036 544.306 89.33 544.101 89.722C543.896 90.1047 543.793 90.576 543.793 91.136C543.793 91.9667 544.003 92.6107 544.423 93.068C544.852 93.516 545.389 93.74 546.033 93.74Z" fill="#718096"></path><path d="M349.241 92.83C350.137 92.0553 350.842 91.4207 351.355 90.926C351.878 90.422 352.312 89.8993 352.657 89.358C353.002 88.8167 353.175 88.2753 353.175 87.734C353.175 87.174 353.04 86.7353 352.769 86.418C352.508 86.1007 352.092 85.942 351.523 85.942C350.972 85.942 350.543 86.1193 350.235 86.474C349.936 86.8193 349.778 87.286 349.759 87.874H348.219C348.247 86.81 348.564 85.998 349.171 85.438C349.787 84.8687 350.566 84.584 351.509 84.584C352.526 84.584 353.32 84.864 353.889 85.424C354.468 85.984 354.757 86.7307 354.757 87.664C354.757 88.336 354.584 88.9847 354.239 89.61C353.903 90.226 353.497 90.7813 353.021 91.276C352.554 91.7613 351.957 92.326 351.229 92.97L350.599 93.53H355.037V94.86H348.233V93.698L349.241 92.83ZM363.229 86.166H358.539V88.952C358.735 88.6907 359.024 88.4713 359.407 88.294C359.799 88.1167 360.214 88.028 360.653 88.028C361.437 88.028 362.072 88.196 362.557 88.532C363.052 88.868 363.402 89.2927 363.607 89.806C363.822 90.3193 363.929 90.8607 363.929 91.43C363.929 92.1207 363.794 92.7367 363.523 93.278C363.262 93.81 362.865 94.23 362.333 94.538C361.81 94.846 361.166 95 360.401 95C359.384 95 358.567 94.748 357.951 94.244C357.335 93.74 356.966 93.0727 356.845 92.242H358.399C358.502 92.6807 358.73 93.0307 359.085 93.292C359.44 93.544 359.883 93.67 360.415 93.67C361.078 93.67 361.572 93.4693 361.899 93.068C362.235 92.6667 362.403 92.1347 362.403 91.472C362.403 90.8 362.235 90.2867 361.899 89.932C361.563 89.568 361.068 89.386 360.415 89.386C359.958 89.386 359.57 89.5027 359.253 89.736C358.945 89.96 358.721 90.268 358.581 90.66H357.069V84.766H363.229V86.166ZM365.548 87.258C365.548 86.5767 365.744 86.0447 366.136 85.662C366.538 85.27 367.051 85.074 367.676 85.074C368.302 85.074 368.81 85.27 369.202 85.662C369.604 86.0447 369.804 86.5767 369.804 87.258C369.804 87.9393 369.604 88.476 369.202 88.868C368.81 89.26 368.302 89.456 367.676 89.456C367.051 89.456 366.538 89.26 366.136 88.868C365.744 88.476 365.548 87.9393 365.548 87.258ZM374.088 85.256L368.502 95H366.934L372.52 85.256H374.088ZM367.676 86.04C367.088 86.04 366.794 86.446 366.794 87.258C366.794 88.0793 367.088 88.49 367.676 88.49C367.956 88.49 368.171 88.392 368.32 88.196C368.479 87.9907 368.558 87.678 368.558 87.258C368.558 86.446 368.264 86.04 367.676 86.04ZM371.246 92.984C371.246 92.3027 371.442 91.7707 371.834 91.388C372.236 90.996 372.749 90.8 373.374 90.8C373.99 90.8 374.494 90.996 374.886 91.388C375.288 91.7707 375.488 92.3027 375.488 92.984C375.488 93.6653 375.288 94.202 374.886 94.594C374.494 94.986 373.99 95.182 373.374 95.182C372.749 95.182 372.236 94.986 371.834 94.594C371.442 94.202 371.246 93.6653 371.246 92.984ZM373.36 91.766C372.772 91.766 372.478 92.172 372.478 92.984C372.478 93.796 372.772 94.202 373.36 94.202C373.948 94.202 374.242 93.796 374.242 92.984C374.242 92.172 373.948 91.766 373.36 91.766ZM382.778 84.64V95H381.182V84.64H382.778ZM388.43 95.126C387.702 95.126 387.044 94.9627 386.456 94.636C385.868 94.3 385.406 93.8333 385.07 93.236C384.734 92.6293 384.566 91.9293 384.566 91.136C384.566 90.352 384.738 89.6567 385.084 89.05C385.429 88.4433 385.9 87.9767 386.498 87.65C387.095 87.3233 387.762 87.16 388.5 87.16C389.237 87.16 389.904 87.3233 390.502 87.65C391.099 87.9767 391.57 88.4433 391.916 89.05C392.261 89.6567 392.434 90.352 392.434 91.136C392.434 91.92 392.256 92.6153 391.902 93.222C391.547 93.8287 391.062 94.3 390.446 94.636C389.839 94.9627 389.167 95.126 388.43 95.126ZM388.43 93.74C388.84 93.74 389.223 93.642 389.578 93.446C389.942 93.25 390.236 92.956 390.46 92.564C390.684 92.172 390.796 91.696 390.796 91.136C390.796 90.576 390.688 90.1047 390.474 89.722C390.259 89.33 389.974 89.036 389.62 88.84C389.265 88.644 388.882 88.546 388.472 88.546C388.061 88.546 387.678 88.644 387.324 88.84C386.978 89.036 386.703 89.33 386.498 89.722C386.292 90.1047 386.19 90.576 386.19 91.136C386.19 91.9667 386.4 92.6107 386.82 93.068C387.249 93.516 387.786 93.74 388.43 93.74ZM404.581 87.286L402.187 95H400.507L398.953 89.302L397.399 95H395.719L393.311 87.286H394.935L396.545 93.488L398.183 87.286H399.849L401.417 93.46L403.013 87.286H404.581ZM413.054 90.954C413.054 91.2433 413.036 91.5047 412.998 91.738H407.104C407.151 92.354 407.38 92.8487 407.79 93.222C408.201 93.5953 408.705 93.782 409.302 93.782C410.161 93.782 410.768 93.4227 411.122 92.704H412.844C412.611 93.4133 412.186 93.9967 411.57 94.454C410.964 94.902 410.208 95.126 409.302 95.126C408.565 95.126 407.902 94.9627 407.314 94.636C406.736 94.3 406.278 93.8333 405.942 93.236C405.616 92.6293 405.452 91.9293 405.452 91.136C405.452 90.3427 405.611 89.6473 405.928 89.05C406.255 88.4433 406.708 87.9767 407.286 87.65C407.874 87.3233 408.546 87.16 409.302 87.16C410.03 87.16 410.679 87.3187 411.248 87.636C411.818 87.9533 412.261 88.4013 412.578 88.98C412.896 89.5493 413.054 90.2073 413.054 90.954ZM411.388 90.45C411.379 89.862 411.169 89.3907 410.758 89.036C410.348 88.6813 409.839 88.504 409.232 88.504C408.682 88.504 408.21 88.6813 407.818 89.036C407.426 89.3813 407.193 89.8527 407.118 90.45H411.388ZM416.431 88.406C416.664 88.014 416.972 87.7107 417.355 87.496C417.747 87.272 418.209 87.16 418.741 87.16V88.812H418.335C417.71 88.812 417.234 88.9707 416.907 89.288C416.59 89.6053 416.431 90.156 416.431 90.94V95H414.835V87.286H416.431V88.406Z" fill="#EB5757"></path><path d="M595 129C595 128.448 594.552 128 594 128C593.448 128 593 128.448 593 129H595ZM558.879 174.216C558.446 174.559 558.373 175.188 558.716 175.621L564.305 182.676C564.648 183.108 565.277 183.181 565.71 182.838C566.143 182.495 566.215 181.866 565.873 181.434L560.905 175.163L567.176 170.195C567.608 169.852 567.681 169.223 567.338 168.79C566.995 168.357 566.366 168.285 565.934 168.627L558.879 174.216ZM593 129V157.5H595V129H593ZM593 157.5C593 162.563 590.988 166.064 587.976 168.531C584.922 171.031 580.793 172.503 576.558 173.331C572.336 174.157 568.097 174.328 564.903 174.289C563.308 174.27 561.981 174.199 561.054 174.132C560.59 174.099 560.228 174.068 559.982 174.044C559.859 174.032 559.766 174.023 559.704 174.016C559.673 174.013 559.65 174.011 559.635 174.009C559.628 174.008 559.622 174.007 559.619 174.007C559.617 174.007 559.616 174.007 559.616 174.007C559.615 174.007 559.615 174.007 559.615 174.007C559.615 174.007 559.615 174.007 559.5 175C559.385 175.993 559.385 175.993 559.386 175.993C559.386 175.994 559.387 175.994 559.388 175.994C559.389 175.994 559.391 175.994 559.394 175.994C559.399 175.995 559.406 175.996 559.415 175.997C559.433 175.999 559.459 176.002 559.494 176.005C559.562 176.013 559.663 176.023 559.793 176.035C560.053 176.06 560.431 176.093 560.911 176.127C561.871 176.196 563.239 176.269 564.879 176.289C568.153 176.329 572.539 176.155 576.942 175.294C581.332 174.435 585.828 172.875 589.243 170.078C592.699 167.248 595 163.187 595 157.5H593Z" fill="#4A5568"></path><path d="M591.84 111.16C592.191 111.512 592.596 111.688 593.053 111.688C593.51 111.688 593.896 111.512 594.213 111.16C594.564 110.844 594.74 110.457 594.74 110H596.428C596.428 110.914 596.094 111.705 595.426 112.373C594.758 113.041 593.967 113.375 593.053 113.375C592.139 113.375 591.348 113.041 590.68 112.373C590.012 111.705 589.678 110.914 589.678 110H591.365C591.365 110.457 591.523 110.844 591.84 111.16ZM604.074 104.041C604.883 104.814 605.094 105.711 604.707 106.73C604.285 107.785 603.494 108.312 602.334 108.312H583.771C582.611 108.312 581.82 107.785 581.398 106.73C581.012 105.711 581.223 104.814 582.031 104.041C582.91 103.197 583.561 102.248 583.982 101.193C584.404 100.104 584.615 98.4336 584.615 96.1836C584.615 94.1094 585.336 92.2988 586.777 90.752C588.254 89.2051 590.064 88.3438 592.209 88.168V87.2188C592.209 86.9727 592.279 86.7793 592.42 86.6387C592.596 86.4629 592.807 86.375 593.053 86.375C593.299 86.375 593.492 86.4629 593.633 86.6387C593.809 86.7793 593.896 86.9727 593.896 87.2188V88.168C596.041 88.3438 597.834 89.2051 599.275 90.752C600.752 92.2988 601.49 94.1094 601.49 96.1836C601.49 98.4336 601.701 100.104 602.123 101.193C602.545 102.248 603.195 103.197 604.074 104.041ZM602.334 106.625C602.721 106.625 602.984 106.467 603.125 106.15C603.266 105.799 603.195 105.5 602.914 105.254C601.859 104.234 601.068 103.092 600.541 101.826C600.049 100.525 599.803 98.6445 599.803 96.1836C599.803 94.3906 599.135 92.8789 597.799 91.6484C596.498 90.3828 594.916 89.75 593.053 89.75C591.189 89.75 589.59 90.3828 588.254 91.6484C586.953 92.8789 586.303 94.3906 586.303 96.1836C586.303 98.6445 586.039 100.525 585.512 101.826C585.02 103.092 584.246 104.234 583.191 105.254C582.91 105.5 582.84 105.799 582.98 106.15C583.121 106.467 583.385 106.625 583.771 106.625H602.334Z" fill="#2D3748"></path><defs><filter id="filter0_d" x="248" y="8" width="407" height="162.203" color-interpolation-filters="sRGB"><feFlood flood-opacity="0" result="BackgroundImageFix"></feFlood><feColorMatrix in="SourceAlpha" type="matrix" values="0 0 0 0 0 0 0 0 0 0 0 0 0 0 0 0 0 0 127 0"></feColorMatrix><feOffset dy="3"></feOffset><feGaussianBlur stdDeviation="10"></feGaussianBlur><feColorMatrix type="matrix" values="0 0 0 0 0.290196 0 0 0 0 0.333333 0 0 0 0 0.407843 0 0 0 0.2 0"></feColorMatrix><feBlend mode="normal" in2="BackgroundImageFix" result="effect1_dropShadow"></feBlend><feBlend mode="normal" in="SourceGraphic" in2="effect1_dropShadow" result="shape"></feBlend></filter><linearGradient id="paint0_linear" x1="453.688" y1="239.873" x2="-65.2784" y2="90.3004" gradientUnits="userSpaceOnUse"><stop stop-color="#EBF8FF" stop-opacity="0"></stop><stop offset="0.577175" stop-color="#D7F0FE"></stop><stop offset="1" stop-color="#E7F6FF" stop-opacity="0.206186"></stop></linearGradient><linearGradient id="paint1_linear" x1="286.711" y1="138.5" x2="-104.949" y2="46.0893" gradientUnits="userSpaceOnUse"><stop stop-color="#63B3ED"></stop><stop offset="1" stop-color="#63B3ED" stop-opacity="0"></stop></linearGradient><linearGradient id="paint2_linear" x1="503.644" y1="161.378" x2="517.796" y2="185.348" gradientUnits="userSpaceOnUse"><stop stop-color="#5A62C3"></stop><stop offset="0.5" stop-color="#4D55BD"></stop><stop offset="1" stop-color="#3940AB"></stop></linearGradient><clipPath id="clip0"><rect width="39" height="39" fill="white" transform="translate(443 154)"></rect></clipPath><clipPath id="clip1"><rect width="41" height="39" fill="white" transform="translate(500 154)"></rect></clipPath></defs></svg> 